<svg xmlns="http://www.w3.org/2000/svg" width="419.478" height="86.614" viewBox="0 0 419.478 86.614"><path d="M408.49 52.836c2.32-.043 5.543.646 5.715 3.523.086 2.62-2.406 3.608-5.2 3.608h-5.713v-7.133h5.198zm.172-9.02c2.535 0 4.598.68 4.684 3.028.086 2.434-1.848 3.242-4.47 3.242h-5.584v-6.27h5.37zm-8.635 18.946h8.98c4.21 0 8.68-1.505 8.464-6.53-.085-1.935-1.805-4.297-4.34-4.77 2.064-.388 3.44-2.735 3.44-4.618-.044-4.404-3.954-5.822-7.907-5.822h-8.635v21.74zm-6.014-10.87c0-6.36-4.512-11.343-11.085-11.343-6.53 0-11.04 4.983-11.04 11.342 0 6.358 4.51 11.385 11.04 11.385 6.573 0 11.085-5.027 11.085-11.385zm-18.776 0c0-5.67 3.78-8.335 7.69-8.335 3.952 0 7.733 2.665 7.733 8.335s-3.78 8.42-7.733 8.42c-3.91 0-7.69-2.75-7.69-8.42zm-23.33-10.87v21.74h3.266v-7.72l2.577-2.398 8.164 10.118h3.91l-9.925-12.267 9.494-9.56h-3.996l-10.226 10.27V41.02h-3.265zm-10.44 5.276v16.464h3.31v-21.74h-2.922L329.78 57.57V41.022h-3.35v21.74h2.964l12.073-16.464zm-35.144-13.61v8.033c-6.315.517-10.87 5.07-10.784 11.172-.173 6.23 4.51 10.783 10.783 11.17v7.992h3.35v-7.992c6.575-.387 10.785-4.898 10.785-11.17 0-6.188-4.425-10.827-10.784-11.214v-7.99h-3.35zm3.35 10.955c4.298.43 7.392 3.91 7.392 8.25 0 4.51-2.88 7.903-7.39 8.205V43.643zm-10.782 8.25c-.128-4.34 3.138-7.82 7.434-8.25v16.455c-4.297-.388-7.605-3.824-7.433-8.206zm-26.895-10.87v21.74h3.352v-9.496h10.87v9.495h3.394v-21.74h-3.394v9.452h-10.87v-9.452h-3.35zm-6.745 21.74V49.356c0-9.84-11.43-11.085-17.443-6.058l1.72 1.976c4.295-3.05 12.502-3.31 12.502 4.08v.43c-1.72-.902-3.61-1.503-5.544-1.503-13.36-.172-13.576 14.908-.387 14.78 2.19-.044 4.51-.903 6.057-2.407l.473 2.106h2.62zm-3.222-10.27v5.07c-1.375 1.633-3.824 2.707-5.93 2.707-9.065 0-8.808-9.152.43-9.195 1.847 0 3.91.386 5.5 1.418zm-46.53-4.854c0-4.6 3.352-9.455 9.84-9.455V57.22c-6.402 0-9.84-4.984-9.84-9.58zm13.233-9.454c12.89.258 12.976 18.733 0 19.034V38.186zm-3.393-2.878c-17.7.258-17.745 24.49 0 24.748v2.836h3.395v-2.836c17.4-.302 17.572-24.532 0-24.748v-2.75h-3.395v2.75zm-29.774 27.454V49.357c0-9.84-11.43-11.085-17.444-6.058l1.718 1.976c4.296-3.05 12.503-3.31 12.503 4.08v.43c-1.718-.902-3.61-1.503-5.542-1.503-13.36-.172-13.576 14.908-.387 14.78 2.193-.044 4.513-.903 6.06-2.407l.472 2.106h2.62zm-3.222-10.27v5.07c-1.374 1.634-3.823 2.708-5.93 2.708-9.064 0-8.806-9.152.43-9.195 1.848 0 3.91.386 5.5 1.418zm-32.694 10.27h3.35v-18.82h11v-2.92h-14.35v21.74zM148.99 46.298v16.464h3.308v-21.74h-2.92L137.303 57.57V41.022h-3.35v21.74h2.963l12.073-16.464zm-39.784-5.276v21.74h3.35v-9.495h10.87v9.495h3.395v-21.74h-3.393v9.452h-10.87v-9.452h-3.35zm-26.25-8.378v30.12h3.565v-11.13l3.266-3.266 10.74 14.394h4.17L92.148 46.048l12.072-13.405h-4.21l-13.49 14.78v-14.78h-3.567z"/><path fill-rule="evenodd" clip-rule="evenodd" fill="#C69E6C" d="M0 86.614l2.995-3.67 4.912-10.613 15.878-6.316-4.03-1.106 13.068-4.726-5.933-.795 8.265-2.07 24.07-26.047-12.258-2.416 15.15-1.13 5.272-6.188-3.51-.808 7.583-2.613 8.578-7.463-1.675-1.043L96.163 2s-9.78.12-12.962.37C62.74 3.984 39.967 13.75 24.893 31.22c-4.623 5.36-3.413 4.45-3.413 4.45l-.857 5.115-1.606-2.32s-3.027 2.268-4.493 5.432c-1.467 3.163-2.585 7.525-2.585 7.525l-1.518-1.27-.21 4.284-1.34.232-.685 4.813-.164 5.11c14.858-25.05 33.624-44.15 58.1-54.935-25.773 14.59-41.447 30.96-57.275 56.21C2.848 75.436 0 86.614 0 86.614"/></svg>