<?xml version="1.0" encoding="utf-8"?>
<!-- Generator: Adobe Illustrator 23.0.3, SVG Export Plug-In . SVG Version: 6.00 Build 0)  -->
<svg version="1.1" id="Layer_1" xmlns="http://www.w3.org/2000/svg" xmlns:xlink="http://www.w3.org/1999/xlink" x="0px" y="0px"
	 viewBox="0 0 1920 1080" style="enable-background:new 0 0 1920 1080;" xml:space="preserve">
<style type="text/css">
	.st0{fill:#FD5B3E;}
	.st1{fill:#E24B32;}
	.st2{fill:#C90005;}
	.st3{fill:#AFADA9;stroke:#231F20;stroke-miterlimit:10;}
	.st4{fill:#64534E;stroke:#231F20;stroke-miterlimit:10;}
	.st5{fill:#AFADA9;}
	.st6{fill:none;stroke:#231F20;}
	.st7{fill:none;stroke:#231F20;stroke-width:2;}
</style>
<g>
	<circle class="st0" cx="755.31" cy="459.22" r="386.69"/>
</g>
<ellipse class="st1" cx="726.44" cy="170.04" rx="116.96" ry="11.59"/>
<ellipse class="st1" cx="830.38" cy="231.81" rx="93.78" ry="17.91"/>
<ellipse class="st1" cx="929.73" cy="323.8" rx="100.1" ry="16.86"/>
<ellipse class="st1" cx="649.68" cy="347.63" rx="84.29" ry="21.07"/>
<ellipse class="st1" cx="631.72" cy="553.18" rx="244.95" ry="24.34"/>
<ellipse class="st1" cx="786.75" cy="459.34" rx="197.03" ry="18.97"/>
<path class="st2" d="M476.86,216.21L341.93,35.75c0,0-80.88,121.08-196.93,147.26S42.77,282.81,42.77,282.81l80.96,108.28
	c0,0,25.76-77.27,100.21-74.93s205.98-154.02,205.98-154.02l42.77,57.19L476.86,216.21z"/>
<polygon class="st3" points="1524.26,1023.87 1505.38,1012.81 1688.01,782.24 1706.89,793.3 "/>
<polygon class="st3" points="1887.09,1011.02 1867.62,1022.44 1696.86,795.22 1716.33,783.8 "/>
<polygon class="st3" points="1909.77,785.76 1834.08,752.26 1809.95,820.77 1888.88,840.53 "/>
<polygon class="st4" points="1537.99,612.49 1848.48,740.77 1812.49,832.69 1474.7,740.47 1527.72,605.32 "/>
<g>
	<polygon class="st5" points="1516.64,590.11 1546.23,599.62 1474.46,756.88 1444.88,747.36 	"/>
	<polygon class="st5" points="1516.64,590.11 1546.23,599.62 1474.46,756.88 1444.88,747.36 	"/>
	<polygon class="st6" points="1516.64,590.11 1546.23,599.62 1474.46,756.88 1444.88,747.36 	"/>
	<polygon class="st5" points="1516.64,590.11 1546.23,599.62 1474.46,756.88 1444.88,747.36 	"/>
	<polygon class="st7" points="1516.64,590.11 1546.23,599.62 1474.46,756.88 1444.88,747.36 	"/>
	<polygon class="st5" points="1516.64,590.11 1546.23,599.62 1474.46,756.88 1444.88,747.36 	"/>
</g>
<ellipse class="st1" cx="989.39" cy="556.38" rx="84.29" ry="21.07"/>
<ellipse class="st1" cx="594.07" cy="629.67" rx="170.01" ry="16.57"/>
<ellipse class="st1" cx="863.92" cy="694.5" rx="129.66" ry="15.27"/>
</svg>
